# xmcd CD database file
#
# Track frame offsets:
#	150
#	15849
#	38489
#	60877
#	71635
#	88371
#	99576
#	120657
#	144744
#	159384
#	172545
#	186373
#	213118
#	240950
#	258085
#	288318
#	301514
#
# Disc length: 4284 seconds
#
# Revision: 0
# Processed by: cddbd v1.5.1PL0 Copyright (c) Steve Scherf et al.
# Submitted via: CDex 1.50beta10
#
DISCID=cb10ba11
DTITLE=Ian Pearce Big Band - Retrospection
DYEAR=2000
DGENRE=Jazz
TTITLE0=Quince
TTITLE1=Intermission Riff
TTITLE2=Here's That Rainy Day
TTITLE3=Broadway Medley
TTITLE4=Mean To me
TTITLE5=Satin Doll
TTITLE6=Love For Sale
TTITLE7=Maonin
TTITLE8=Meet Basie
TTITLE9=All Of Me
TTITLE10=There'll Be Some Changes Made
TTITLE11=Mood Indigo
TTITLE12=In Mulligans Shoes
TTITLE13=Violets For Your Furs
TTITLE14=Spiraling Prism
TTITLE15=Cherokee
TTITLE16=Song For Stan
EXTD=YEAR: 2000
EXTT0=
EXTT1=
EXTT2=
EXTT3=
EXTT4=
EXTT5=
EXTT6=
EXTT7=
EXTT8=
EXTT9=
EXTT10=
EXTT11=
EXTT12=
EXTT13=
EXTT14=
EXTT15=
EXTT16=
PLAYORDER=
